<svg xmlns="http://www.w3.org/2000/svg" viewBox="0 0 1600 900" role="img" aria-label="LAFAYETTE CEMETERY">
<defs>
  <linearGradient id="g" x1="0" x2="1" y1="0" y2="1"><stop stop-color="#7b766e"/><stop offset=".48" stop-color="#aaa398"/><stop offset="1" stop-color="#57534d"/></linearGradient>
  <radialGradient id="r"><stop stop-color="#ded7cb" stop-opacity=".52"/><stop offset="1" stop-color="#504c46" stop-opacity="0"/></radialGradient>
</defs>
<rect width="1600" height="900" fill="url(#g)"/>
<circle cx="1220" cy="330" r="420" fill="url(#r)"/>
<path d="M0 690 C280 610 420 660 650 590 S1120 520 1600 610 L1600 900 L0 900Z" fill="#403d39" fill-opacity=".55"/>
<path d="M1000 180 L1210 70 L1420 180 L1420 630 L1000 630Z" fill="#4a4742" fill-opacity=".6"/>
<path d="M1040 230 H1380 V590 H1040Z" fill="#171918" fill-opacity=".43"/>
<g stroke="#d7d0c4" stroke-opacity=".14" fill="none"><circle cx="1110" cy="720" r="180"/><circle cx="1270" cy="720" r="260"/><path d="M820 0 L1460 900M650 900L1250 0"/></g>
<text x="1280" y="410" text-anchor="middle" font-size="120" fill="#d9d2c7" fill-opacity=".62" font-family="Georgia,serif">✚</text>
<text x="95" y="118" fill="#ddd6ca" fill-opacity=".74" font-size="42" font-family="Arial,sans-serif" letter-spacing="5">LAFAYETTE CEMETERY</text>
<text x="98" y="164" fill="#ddd6ca" fill-opacity=".48" font-size="24" font-family="Arial,sans-serif" letter-spacing="4">GARDEN DISTRICT</text>
</svg>